<?xml version="1.0" encoding="UTF-8"?>
<svg xmlns="http://www.w3.org/2000/svg" xmlns:xlink="http://www.w3.org/1999/xlink" width="375pt" height="374.999991pt" viewBox="0 0 375 374.999991" version="1.2">
<defs>
<clipPath id="clip1">
  <path d="M 56 189 L 105 189 L 105 202.195312 L 56 202.195312 Z M 56 189 "/>
</clipPath>
<clipPath id="clip2">
  <path d="M 56 173.695312 L 105 173.695312 L 105 187 L 56 187 Z M 56 173.695312 "/>
</clipPath>
<clipPath id="clip3">
  <path d="M 119.050781 132.691406 L 256.300781 132.691406 L 256.300781 259.441406 L 119.050781 259.441406 Z M 119.050781 132.691406 "/>
</clipPath>
</defs>
<g id="surface1">
<path style=" stroke:none;fill-rule:nonzero;fill:rgb(27.449036%,46.269226%,67.449951%);fill-opacity:1;" d="M 309.34375 187.746094 L 280.851562 180.398438 C 280.460938 180.300781 280.144531 180.542969 280.144531 180.941406 L 280.144531 185.472656 C 280.144531 185.875 279.820312 186.199219 279.417969 186.199219 L 71.859375 186.199219 C 71.457031 186.199219 71.128906 186.523438 71.128906 186.925781 L 71.128906 188.9375 C 71.128906 189.335938 71.457031 189.664062 71.859375 189.664062 L 279.417969 189.664062 C 279.820312 189.664062 280.144531 189.988281 280.144531 190.386719 L 280.144531 194.023438 C 280.144531 194.421875 280.464844 194.675781 280.855469 194.585938 L 309.339844 188.09375 C 309.730469 188 309.734375 187.851562 309.34375 187.746094 "/>
<path style=" stroke:none;fill-rule:nonzero;fill:rgb(27.449036%,46.269226%,67.449951%);fill-opacity:1;" d="M 280.144531 180.941406 L 280.144531 185.472656 C 280.144531 185.875 279.820312 186.199219 279.417969 186.199219 L 71.859375 186.199219 C 71.457031 186.199219 71.128906 186.523438 71.128906 186.925781 L 71.128906 187.203125 C 71.128906 187.605469 71.457031 187.929688 71.859375 187.929688 L 279.417969 187.929688 C 279.820312 187.929688 280.472656 187.929688 280.875 187.929688 C 284.980469 187.929688 305.214844 187.929688 309.324219 187.929688 C 309.722656 187.929688 309.734375 187.851562 309.34375 187.746094 L 280.851562 180.398438 C 280.460938 180.300781 280.144531 180.542969 280.144531 180.941406 "/>
<g clip-path="url(#clip1)" clip-rule="nonzero">
<path style=" stroke:none;fill-rule:nonzero;fill:rgb(27.449036%,46.269226%,67.449951%);fill-opacity:1;" d="M 104.046875 190.28125 L 90.335938 201.578125 C 89.921875 201.917969 89.15625 202.195312 88.617188 202.195312 L 57.382812 202.195312 C 56.847656 202.195312 56.75 201.917969 57.164062 201.578125 L 70.875 190.28125 C 71.289062 189.941406 72.058594 189.664062 72.59375 189.664062 L 103.828125 189.664062 C 104.363281 189.664062 104.460938 189.941406 104.046875 190.28125 "/>
</g>
<g clip-path="url(#clip2)" clip-rule="nonzero">
<path style=" stroke:none;fill-rule:nonzero;fill:rgb(27.449036%,46.269226%,67.449951%);fill-opacity:1;" d="M 104.046875 185.582031 L 90.335938 174.285156 C 89.921875 173.945312 89.15625 173.667969 88.617188 173.667969 L 57.382812 173.667969 C 56.847656 173.667969 56.75 173.945312 57.164062 174.285156 L 70.875 185.582031 C 71.289062 185.921875 72.058594 186.199219 72.59375 186.199219 L 103.828125 186.199219 C 104.363281 186.199219 104.460938 185.921875 104.046875 185.582031 "/>
</g>
<g clip-path="url(#clip3)" clip-rule="nonzero">
<path style=" stroke:none;fill-rule:nonzero;fill:rgb(27.449036%,46.269226%,67.449951%);fill-opacity:1;" d="M 155.109375 132.707031 C 135.230469 132.707031 119.101562 148.804688 119.101562 168.640625 C 119.101562 208.992188 159.886719 219.570312 187.683594 259.460938 C 213.960938 219.816406 256.265625 207.699219 256.265625 168.640625 C 256.265625 148.804688 240.132812 132.707031 220.257812 132.707031 C 205.839844 132.707031 193.433594 141.203125 187.683594 153.425781 C 181.933594 141.203125 169.523438 132.707031 155.109375 132.707031 Z M 155.109375 132.707031 "/>
</g>
</g>
</svg>
