<?xml version="1.0" encoding="UTF-8"?>
<svg xmlns="http://www.w3.org/2000/svg" xmlns:xlink="http://www.w3.org/1999/xlink" width="30pt" height="30.000001pt" viewBox="0 0 30 30.000001" version="1.2">
<defs>
<clipPath id="clip1">
  <path d="M 7.394531 2.144531 L 22.636719 2.144531 L 22.636719 26.824219 L 7.394531 26.824219 Z M 7.394531 2.144531 "/>
</clipPath>
<clipPath id="clip2">
  <path d="M 15 5 L 20.804688 5 L 20.804688 10 L 15 10 Z M 15 5 "/>
</clipPath>
<clipPath id="clip3">
  <path d="M 9.195312 5 L 15 5 L 15 10 L 9.195312 10 Z M 9.195312 5 "/>
</clipPath>
<clipPath id="clip4">
  <path d="M 9.195312 10 L 15 10 L 15 15.96875 L 9.195312 15.96875 Z M 9.195312 10 "/>
</clipPath>
<clipPath id="clip5">
  <path d="M 15 10 L 20.804688 10 L 20.804688 15.96875 L 15 15.96875 Z M 15 10 "/>
</clipPath>
<clipPath id="clip6">
  <path d="M 9.195312 4.355469 L 20.804688 4.355469 L 20.804688 15.96875 L 9.195312 15.96875 Z M 9.195312 4.355469 "/>
</clipPath>
</defs>
<g id="surface1">
<g clip-path="url(#clip1)" clip-rule="nonzero">
<path style=" stroke:none;fill-rule:evenodd;fill:rgb(27.449036%,46.269226%,67.449951%);fill-opacity:1;" d="M 15.042969 26.824219 C 14.480469 24.074219 13.488281 21.785156 12.285156 19.664062 C 11.394531 18.089844 10.363281 16.640625 9.40625 15.113281 C 9.085938 14.605469 8.8125 14.066406 8.503906 13.539062 C 7.894531 12.480469 7.394531 11.253906 7.429688 9.667969 C 7.457031 8.113281 7.910156 6.867188 8.558594 5.847656 C 9.628906 4.175781 11.421875 2.800781 13.828125 2.441406 C 15.792969 2.144531 17.636719 2.644531 18.945312 3.40625 C 20.011719 4.027344 20.839844 4.855469 21.46875 5.835938 C 22.125 6.859375 22.578125 8.066406 22.613281 9.640625 C 22.632812 10.445312 22.5 11.191406 22.316406 11.8125 C 22.125 12.441406 21.820312 12.964844 21.550781 13.523438 C 21.023438 14.617188 20.359375 15.617188 19.695312 16.621094 C 17.714844 19.605469 15.855469 22.652344 15.042969 26.824219 Z M 15.042969 26.824219 "/>
</g>
<path style=" stroke:none;fill-rule:nonzero;fill:rgb(27.449036%,46.269226%,67.449951%);fill-opacity:1;" d="M 17.683594 9.648438 C 17.683594 10 17.613281 10.339844 17.480469 10.664062 C 17.34375 10.988281 17.152344 11.273438 16.902344 11.523438 C 16.652344 11.769531 16.367188 11.960938 16.039062 12.097656 C 15.714844 12.230469 15.375 12.296875 15.023438 12.296875 C 14.667969 12.296875 14.328125 12.230469 14.003906 12.097656 C 13.675781 11.960938 13.390625 11.769531 13.140625 11.523438 C 12.890625 11.273438 12.699219 10.988281 12.5625 10.664062 C 12.429688 10.339844 12.359375 10 12.359375 9.648438 C 12.359375 9.296875 12.429688 8.960938 12.5625 8.636719 C 12.699219 8.3125 12.890625 8.023438 13.140625 7.777344 C 13.390625 7.527344 13.675781 7.335938 14.003906 7.203125 C 14.328125 7.066406 14.667969 7 15.023438 7 C 15.375 7 15.714844 7.066406 16.039062 7.203125 C 16.367188 7.335938 16.652344 7.527344 16.902344 7.777344 C 17.152344 8.023438 17.34375 8.3125 17.480469 8.636719 C 17.613281 8.960938 17.683594 9.296875 17.683594 9.648438 Z M 17.683594 9.648438 "/>
<g clip-path="url(#clip2)" clip-rule="nonzero">
<path style=" stroke:none;fill-rule:nonzero;fill:rgb(100%,100%,100%);fill-opacity:1;" d="M 19.953125 9.523438 C 19.886719 9.523438 19.832031 9.476562 19.820312 9.410156 C 19.496094 7.300781 17.859375 5.664062 15.75 5.339844 C 15.675781 5.328125 15.628906 5.261719 15.640625 5.191406 C 15.652344 5.117188 15.71875 5.070312 15.789062 5.082031 C 16.871094 5.246094 17.855469 5.746094 18.636719 6.527344 C 19.414062 7.304688 19.914062 8.289062 20.082031 9.371094 C 20.089844 9.445312 20.042969 9.511719 19.972656 9.519531 C 19.964844 9.523438 19.957031 9.523438 19.953125 9.523438 "/>
</g>
<g clip-path="url(#clip3)" clip-rule="nonzero">
<path style=" stroke:none;fill-rule:nonzero;fill:rgb(100%,100%,100%);fill-opacity:1;" d="M 10.046875 9.523438 C 10.042969 9.523438 10.035156 9.523438 10.027344 9.519531 C 9.957031 9.511719 9.90625 9.445312 9.917969 9.371094 C 10.085938 8.289062 10.585938 7.304688 11.363281 6.527344 C 12.144531 5.746094 13.128906 5.246094 14.210938 5.082031 C 14.28125 5.070312 14.347656 5.117188 14.359375 5.191406 C 14.371094 5.261719 14.324219 5.328125 14.25 5.339844 C 12.140625 5.664062 10.503906 7.300781 10.179688 9.410156 C 10.167969 9.476562 10.113281 9.523438 10.046875 9.523438 "/>
</g>
<g clip-path="url(#clip4)" clip-rule="nonzero">
<path style=" stroke:none;fill-rule:nonzero;fill:rgb(100%,100%,100%);fill-opacity:1;" d="M 14.230469 15.242188 C 14.222656 15.242188 14.21875 15.242188 14.210938 15.242188 C 13.128906 15.074219 12.144531 14.574219 11.363281 13.796875 C 10.585938 13.019531 10.085938 12.035156 9.917969 10.949219 C 9.90625 10.878906 9.957031 10.8125 10.027344 10.800781 C 10.101562 10.789062 10.167969 10.839844 10.179688 10.910156 C 10.503906 13.019531 12.140625 14.65625 14.25 14.984375 C 14.324219 14.996094 14.371094 15.0625 14.359375 15.132812 C 14.351562 15.199219 14.292969 15.242188 14.230469 15.242188 "/>
</g>
<g clip-path="url(#clip5)" clip-rule="nonzero">
<path style=" stroke:none;fill-rule:nonzero;fill:rgb(100%,100%,100%);fill-opacity:1;" d="M 15.769531 15.242188 C 15.707031 15.242188 15.648438 15.199219 15.640625 15.132812 C 15.628906 15.0625 15.675781 14.996094 15.75 14.984375 C 17.859375 14.65625 19.496094 13.019531 19.820312 10.910156 C 19.832031 10.839844 19.898438 10.789062 19.972656 10.800781 C 20.042969 10.8125 20.089844 10.878906 20.082031 10.949219 C 19.914062 12.035156 19.414062 13.019531 18.636719 13.796875 C 17.855469 14.574219 16.871094 15.074219 15.789062 15.242188 C 15.78125 15.242188 15.773438 15.242188 15.769531 15.242188 "/>
</g>
<g clip-path="url(#clip6)" clip-rule="nonzero">
<path style=" stroke:none;fill-rule:nonzero;fill:rgb(100%,100%,100%);fill-opacity:1;" d="M 16.089844 9.070312 L 15 4.355469 L 13.910156 9.070312 L 9.195312 10.160156 L 13.910156 11.25 L 15 15.96875 L 16.089844 11.25 L 20.804688 10.160156 L 16.089844 9.070312 "/>
</g>
<path style=" stroke:none;fill-rule:nonzero;fill:rgb(100%,100%,100%);fill-opacity:1;" d="M 13.691406 8.851562 L 13.796875 8.402344 L 12.324219 7.484375 L 13.242188 8.957031 L 13.691406 8.851562 "/>
<path style=" stroke:none;fill-rule:nonzero;fill:rgb(100%,100%,100%);fill-opacity:1;" d="M 16.308594 8.851562 L 16.757812 8.957031 L 17.675781 7.484375 L 16.203125 8.402344 L 16.308594 8.851562 "/>
<path style=" stroke:none;fill-rule:nonzero;fill:rgb(100%,100%,100%);fill-opacity:1;" d="M 16.308594 11.46875 L 16.203125 11.917969 L 17.675781 12.839844 L 16.757812 11.367188 L 16.308594 11.46875 "/>
<path style=" stroke:none;fill-rule:nonzero;fill:rgb(100%,100%,100%);fill-opacity:1;" d="M 13.691406 11.46875 L 13.242188 11.367188 L 12.324219 12.839844 L 13.796875 11.917969 L 13.691406 11.46875 "/>
</g>
</svg>
